<svg width="1140" height="478" viewBox="0 0 1140 478" fill="none" xmlns="http://www.w3.org/2000/svg">
    <rect width="1140" height="478" rx="8" fill="#F7F7F7"/>
    <path d="m651.517 448.628-1.717 1.112-.522-.928 1.823-.928-1.823-.928.522-.928 1.717 1.112-.092-2.041h1.063l-.092 2.041 1.717-1.112.522.928-1.823.928 1.823.928-.522.928-1.717-1.112.092 2.041h-1.063l.092-2.041zm14.536 7.532h-1.305v-12.25h1.305v12.25zm-3.64-10.93c-.003 1.244-.196 2.398-.58 3.461-.383 1.061-.999 2.036-1.847 2.925-.844.89-1.948 1.66-3.311 2.311l-.687-1.049c1.177-.558 2.144-1.206 2.901-1.944.761-.738 1.323-1.563 1.687-2.475.364-.912.548-1.919.551-3.021v-.208h1.286zm-.72 1.035h-5.11v-1.035h5.11v1.035zm9.03-.436h5.675v-1.445h1.291v4.936h-8.257v-4.936h1.291v1.445zm5.675 2.451v-1.44h-5.675v1.44h5.675zm2.741 3.317h-11.167v-1.064h11.167v1.064zm-4.945-.59h-1.291v-2.296h1.291v2.296zm3.688 4.902h-8.503v-1.064h8.503v1.064zm-7.198-.687h-1.305v-2.745h1.305v2.745zm21.904-9.484h-7.74v-1.054h7.74v1.054zm2.069 5.25H683.49v-1.059h11.167v1.059zm-4.97 5.192h-1.3v-5.54h1.3v5.54zm3.548-10.351a44.542 44.542 0 0 1-.029 1.489 19.23 19.23 0 0 1-.444 3.259l-1.296-.16c.148-.612.256-1.187.324-1.726.071-.541.114-1.02.131-1.435.016-.419.024-.903.024-1.451v-1.121h1.29v1.145zm6.473-.024a5.98 5.98 0 0 1-.421 2.234 5.137 5.137 0 0 1-1.194 1.793 5.187 5.187 0 0 1-1.856 1.151l-.696-1.044a4.769 4.769 0 0 0 1.658-.953 4.315 4.315 0 0 0 1.068-1.44 4.188 4.188 0 0 0 .377-1.741v-1.213h1.064v1.213zm.232-.053a3.798 3.798 0 0 0 .348 1.624c.235.51.577.958 1.025 1.344.448.384.976.675 1.586.875l-.706 1.015a4.985 4.985 0 0 1-1.779-1.082 4.914 4.914 0 0 1-1.136-1.678 5.514 5.514 0 0 1-.392-2.098v-1.16h1.054v1.16zm5.859 5.39h-1.295v-7.232h1.295v7.232zm-4.104.339c.851 0 1.587.093 2.209.28.625.184 1.104.451 1.436.803.332.348.498.768.498 1.261 0 .487-.166.904-.498 1.252-.332.348-.809.613-1.431.793-.622.181-1.36.271-2.214.271-.857 0-1.597-.09-2.219-.271-.619-.18-1.094-.445-1.426-.793a1.732 1.732 0 0 1-.493-1.252 1.743 1.743 0 0 1 .493-1.261c.332-.352.809-.619 1.431-.803.622-.187 1.36-.28 2.214-.28zm0 1.02c-.6 0-1.112.053-1.537.159-.426.103-.753.253-.982.45a.898.898 0 0 0-.333.715c-.004.268.108.5.333.696.229.194.556.342.982.445.428.1.941.15 1.537.15.593 0 1.104-.05 1.532-.15.429-.103.756-.251.982-.445.225-.196.34-.428.343-.696a.93.93 0 0 0-.343-.715c-.226-.197-.553-.347-.982-.45-.428-.106-.939-.159-1.532-.159zm3.036-5.028h-2.809v-1.068h2.809v1.068zm10.195 2.185h-2.243v-1.054h2.243v1.054zm3.297 6.502h-1.248v-12.25h1.248v12.25zm-2.49-.604h-1.238v-11.409h1.238v11.409zm-5.274-10.664c.535 0 1.002.174 1.402.522.403.348.714.847.933 1.498.222.651.335 1.414.338 2.287-.003.877-.116 1.64-.338 2.291-.219.651-.53 1.154-.933 1.509-.4.354-.867.53-1.402.527a2.002 2.002 0 0 1-1.388-.527c-.393-.355-.699-.858-.918-1.509-.219-.651-.329-1.414-.329-2.291 0-.873.11-1.636.329-2.287.219-.651.525-1.15.918-1.498a2.04 2.04 0 0 1 1.388-.522zm0 1.218c-.29 0-.543.122-.759.367-.216.245-.382.6-.498 1.064-.116.461-.173 1.013-.169 1.658-.004.644.053 1.199.169 1.663.116.464.282.818.498 1.063.216.245.469.366.759.363.3.003.559-.118.778-.363.223-.245.392-.599.508-1.063.119-.464.179-1.019.179-1.663 0-.645-.06-1.197-.179-1.658-.116-.464-.285-.819-.508-1.064-.219-.245-.478-.367-.778-.367zm14.391 1.856h2.33v-2.915h1.204v8.097h-4.767v-8.097h1.233v2.915zm2.33 4.124v-3.084h-2.33v3.084h2.33zm6.56 4.07h-1.247v-12.25h1.247v12.25zm-.812-6.381h-2.296v-1.073h2.296v1.073zm-1.943 5.777h-1.233v-11.409h1.233v11.409zm10.533-5.086h-1.276v-2.262h1.276v2.262zm-.193-5.849c0 .719-.218 1.374-.653 1.967-.435.593-1.026 1.088-1.774 1.485a7.965 7.965 0 0 1-2.475.807l-.479-1.025a7.059 7.059 0 0 0 2.147-.628c.654-.316 1.171-.701 1.551-1.156.384-.458.576-.941.576-1.45v-.517h1.107v.517zm.208 0c0 .512.19.997.57 1.455.383.454.902.84 1.557 1.155a7.11 7.11 0 0 0 2.16.624l-.517 1.025a7.821 7.821 0 0 1-2.46-.812c-.742-.397-1.33-.891-1.765-1.484a3.221 3.221 0 0 1-.648-1.963v-.517h1.103v.517zm4.94 6.342h-11.167v-1.044h11.167v1.044zm-5.598.904c.883 0 1.642.083 2.277.247.635.164 1.118.409 1.45.735.335.322.505.71.508 1.165a1.56 1.56 0 0 1-.508 1.16c-.332.319-.815.559-1.45.72-.635.165-1.394.247-2.277.247-.886 0-1.648-.082-2.287-.247-.634-.161-1.121-.401-1.46-.72a1.543 1.543 0 0 1-.502-1.16c0-.455.169-.841.507-1.16.342-.323.829-.568 1.46-.735.635-.168 1.396-.252 2.282-.252zm0 1.006c-.632 0-1.167.043-1.605.13-.435.084-.765.213-.991.387-.226.171-.337.379-.334.624-.003.245.11.453.339.623.229.168.561.295.996.382.435.087.967.129 1.595.126a8.115 8.115 0 0 0 1.591-.126c.438-.087.771-.214 1-.382.229-.17.345-.378.348-.623-.003-.245-.119-.453-.348-.624-.229-.174-.562-.303-1-.387-.436-.087-.966-.13-1.591-.13zm17.698-1.528h-11.167v-1.039h11.167v1.039zm-1.257 4.564h-8.504v-1.064h8.504v1.064zm-7.198-.73h-1.306v-2.838h1.306v2.838zm2.861-10.858c.884-.003 1.654.092 2.311.285.661.194 1.169.477 1.523.851.358.371.537.809.537 1.315 0 .509-.179.951-.537 1.325-.354.37-.862.656-1.523.855-.657.2-1.427.3-2.311.3-.886 0-1.658-.1-2.315-.3-.658-.199-1.167-.485-1.528-.855a1.856 1.856 0 0 1-.536-1.325c0-.506.179-.944.536-1.315.361-.374.87-.657 1.528-.851.657-.193 1.429-.288 2.315-.285zm0 1.039c-.625 0-1.166.057-1.624.17-.454.109-.804.272-1.049.488-.242.213-.361.464-.358.754-.003.3.116.556.358.769.245.209.595.37 1.049.483.458.113.999.169 1.624.169.626 0 1.166-.056 1.62-.169.458-.113.809-.274 1.054-.483.245-.213.367-.469.367-.769 0-.29-.122-.541-.367-.754-.245-.216-.596-.379-1.054-.488-.454-.113-.994-.17-1.62-.17zm19.037.784h-7.918v-1.054h7.918v1.054zm2.074 8.363h-11.167v-1.073h11.167v1.073zm-5.636-.522h-1.286v-4.873h1.286v4.873zm4.379-7.59c0 .674-.009 1.262-.029 1.765a26.816 26.816 0 0 1-.13 1.73 25.514 25.514 0 0 1-.31 2.122l-1.305-.145c.142-.715.247-1.393.314-2.035a22.25 22.25 0 0 0 .131-1.697c.019-.493.031-1.078.034-1.754V445.09h1.295V446.395zm12.627 4.728h-1.228v-7.203h1.228v7.203zm-.836-3.138h-2.243v-1.073h2.243v1.073zm-1.871 3.07h-1.233v-6.908h1.233v6.908zm2.707 5.105h-1.281v-3.447h-7.077v-1.053h8.358v4.5zm-5.081-11.365c0 .993-.176 1.895-.527 2.707a6.167 6.167 0 0 1-1.581 2.156c-.702.625-1.577 1.154-2.625 1.586l-.628-.972c.902-.354 1.656-.781 2.262-1.281.606-.5 1.059-1.06 1.359-1.682a4.68 4.68 0 0 0 .449-2.05v-.464h1.291zm-.846 1.059h-3.983v-1.059h3.983v1.059zm11.602 1.174a8.61 8.61 0 0 1-.426 2.698 7.58 7.58 0 0 1-1.198 2.311c-.516.673-1.112 1.186-1.789 1.537l-.807-1.044a4.89 4.89 0 0 0 1.643-1.315 6.628 6.628 0 0 0 1.117-1.968 6.544 6.544 0 0 0 .401-2.219v-2.098h1.059v2.098zm.232 0a5.98 5.98 0 0 0 .387 2.132 6.342 6.342 0 0 0 1.092 1.876c.467.551.999.973 1.595 1.266l-.797 1.04c-.661-.342-1.244-.836-1.75-1.484a7.313 7.313 0 0 1-1.17-2.229 8.253 8.253 0 0 1-.401-2.601v-2.098h1.044v2.098zm5.298 9.132h-1.3v-12.25h1.3v12.25zm1.963-6.255h-2.253v-1.107h2.253v1.107zm10.137 6.241h-1.301V443.91h1.301v12.236zm1.9-6.265h-2.239v-1.088h2.239v1.088zm-5.105-4.675a10.183 10.183 0 0 1-.58 3.432c-.381 1.064-.987 2.043-1.818 2.939-.832.896-1.902 1.667-3.21 2.311l-.725-1.005c1.121-.561 2.058-1.212 2.809-1.953a7.37 7.37 0 0 0 1.682-2.49c.374-.919.561-1.924.561-3.017v-.217h1.281zm-.619 1.073h-5.1v-1.073h5.1v1.073zm20.018 9.905h-1.3V443.91h1.3v12.274zm-.952-6.366h-2.877v-1.059h2.877v1.059zm-5.173-1.973a7.486 7.486 0 0 1-.425 2.475 6.783 6.783 0 0 1-1.189 2.108 5.089 5.089 0 0 1-1.77 1.388l-.715-1.001a4.863 4.863 0 0 0 1.61-1.204 5.87 5.87 0 0 0 1.078-1.769 5.503 5.503 0 0 0 .381-1.997v-.962h1.03v.962zm.252 0c0 .648.13 1.285.391 1.91a5.576 5.576 0 0 0 1.098 1.687c.473.5 1.018.886 1.633 1.16l-.715 1.006a5.21 5.21 0 0 1-1.803-1.335 6.417 6.417 0 0 1-1.204-2.035 6.761 6.761 0 0 1-.42-2.393v-.962h1.02v.962zm2.683-.802h-6.686v-1.044h6.686v1.044zm-2.664-.474h-1.296v-2.417h1.296v2.417zm17.896 9.615h-1.286V443.91h1.286v12.274zm-8.421-4.012c1.134 0 2.172-.032 3.113-.097a32.04 32.04 0 0 0 2.939-.343l.121 1.073a31.09 31.09 0 0 1-2.973.348c-.957.062-2.024.092-3.2.092h-1.05v-1.073h1.05zm4.674-2.678h-4.389v3.079h-1.335v-4.123h4.409v-2.374h-4.423v-1.064h5.738v4.482zm10.128 6.995h-1.301l3.191-11.854h1.3l-3.19 11.854zm16.533-8.387h-2.659v-1.069h2.659v1.069zm.923 3.098h-1.295v-7.29h1.295v7.29zm-4.104.344c.851 0 1.587.091 2.209.275.625.181 1.104.445 1.436.793.332.345.498.759.498 1.242 0 .48-.166.893-.498 1.238-.332.345-.809.607-1.431.788-.622.184-1.36.277-2.214.28-.857-.003-1.597-.096-2.219-.28-.619-.181-1.094-.443-1.426-.788a1.707 1.707 0 0 1-.493-1.238 1.71 1.71 0 0 1 .493-1.242c.332-.348.809-.612 1.431-.793.622-.184 1.36-.275 2.214-.275zm0 1.005c-.6 0-1.112.052-1.537.155-.426.1-.753.248-.982.444a.883.883 0 0 0-.333.706c-.004.271.108.505.333.701.229.194.556.34.982.44.425.1.937.148 1.537.145.593.003 1.104-.045 1.532-.145.429-.1.756-.246.982-.44.225-.196.34-.43.343-.701a.914.914 0 0 0-.343-.706c-.226-.196-.553-.344-.982-.444-.428-.103-.939-.155-1.532-.155zm-1.972-6.463a5.556 5.556 0 0 1-.426 2.141 5.242 5.242 0 0 1-1.194 1.76 5.138 5.138 0 0 1-1.837 1.141l-.672-1.03a4.759 4.759 0 0 0 1.624-.947 4.402 4.402 0 0 0 1.064-1.422 3.823 3.823 0 0 0 .372-1.643v-.943h1.069v.943zm.246-.01c0 .519.118 1.022.353 1.508.238.484.58.917 1.025 1.301.448.38.973.672 1.576.875l-.662 1.034a4.922 4.922 0 0 1-1.789-1.073 4.981 4.981 0 0 1-1.16-1.653 5.03 5.03 0 0 1-.402-1.992v-.933h1.059v.933zm2.64-.261h-6.614v-1.059h6.614v1.059zm9.286-.145a5.74 5.74 0 0 1-.426 2.185 5.187 5.187 0 0 1-3.055 2.925l-.667-1.02a4.7 4.7 0 0 0 1.634-.958 4.36 4.36 0 0 0 1.059-1.44 4.022 4.022 0 0 0 .372-1.692v-1.175h1.083v1.175zm.246 0a3.66 3.66 0 0 0 .363 1.619 4.12 4.12 0 0 0 1.054 1.359c.457.393.995.693 1.614.899l-.652 1.025a5.212 5.212 0 0 1-1.842-1.093 5.01 5.01 0 0 1-1.199-1.697 5.289 5.289 0 0 1-.421-2.112v-1.175h1.083v1.175zm5.709 10.49h-1.3v-3.258h-7.005v-1.054h8.305v4.312zm0-4.897h-1.3v-7.353h1.3v7.353zm11.404-6.275c0 .758-.224 1.454-.672 2.089-.445.635-1.049 1.166-1.813 1.595a7.513 7.513 0 0 1-2.514.856l-.522-1.059a6.766 6.766 0 0 0 2.2-.672c.67-.345 1.202-.764 1.595-1.257.393-.493.59-1.01.59-1.552v-.667h1.136v.667zm.218 0c0 .535.198 1.051.594 1.547.397.493.93.912 1.6 1.257a6.759 6.759 0 0 0 2.205.677l-.517 1.059a7.543 7.543 0 0 1-2.529-.861c-.764-.429-1.369-.96-1.817-1.595a3.543 3.543 0 0 1-.663-2.084v-.667h1.127v.667zm-.073 11.172h-1.276v-4.616h1.276v4.616zm4.975-4.355h-11.168v-1.074h11.168v1.074zm11.094-1.32h-1.301v-6.575h1.301v6.575zm-6.749 1.967h5.458v-1.373h1.291v4.927h-8.02v-4.927h1.271v1.373zm5.458 2.495v-1.47h-5.458v1.47h5.458zm-5.361-10.471c.618-.003 1.176.114 1.672.353.497.238.883.575 1.161 1.01.28.435.42.93.42 1.484a2.62 2.62 0 0 1-.42 1.465 2.815 2.815 0 0 1-1.161 1.006 3.736 3.736 0 0 1-1.672.357c-.619.003-1.177-.116-1.673-.357a2.886 2.886 0 0 1-1.17-1.006 2.62 2.62 0 0 1-.42-1.465c0-.554.14-1.049.42-1.484a2.822 2.822 0 0 1 1.17-1.01c.496-.239 1.054-.356 1.673-.353zm0 1.092a2.287 2.287 0 0 0-1.035.218c-.303.145-.54.351-.71.619-.168.267-.25.573-.247.918-.003.345.079.651.247.919.17.264.407.47.71.618.303.146.648.22 1.035.223.38-.003.72-.077 1.02-.223.303-.148.538-.354.706-.618.17-.268.256-.574.256-.919a1.653 1.653 0 0 0-.962-1.537c-.3-.148-.64-.221-1.02-.218zm12.863 5.328c0-1.196.158-2.305.474-3.326a9.853 9.853 0 0 1 1.407-2.838h1.339c-.316.422-.604.972-.865 1.649a12.718 12.718 0 0 0-.619 2.204c-.148.79-.223 1.56-.223 2.311 0 .751.075 1.523.223 2.315.151.79.358 1.523.619 2.2.261.68.549 1.231.865 1.653h-1.339a9.937 9.937 0 0 1-1.407-2.837c-.316-1.022-.474-2.132-.474-3.331zm10.298-4.719H911.5v-1.044h5.516v1.044zm-2.48 6.744h-1.257v-2.978h1.257v2.978zm3.152-6.594a51.652 51.652 0 0 1-.029 1.523c-.013.432-.047.93-.102 1.494-.051.561-.132 1.16-.242 1.798l-1.266-.116a22.67 22.67 0 0 0 .227-1.759c.052-.558.084-1.054.097-1.489.013-.435.019-.933.019-1.494v-1.151h1.296V446.327zm-6.319 2.708-.183-1.093 5.849-.256v.928l-5.666.421zm9.031 7.125h-1.301v-12.25h1.301v12.25zm1.88-6.047h-2.248v-1.103h2.248v1.103zm-11.534 2.422c1.492 0 2.862-.023 4.109-.068a34.701 34.701 0 0 0 3.538-.3l.073.952c-1.151.2-2.354.332-3.611.397-1.257.064-2.58.097-3.969.097l-.14-1.078zm22.382-1.257h-1.301v-7.358h1.301v7.358zm-4.119.256c.854 0 1.592.092 2.214.275.625.184 1.104.452 1.436.803.335.348.504.767.507 1.257-.003.49-.172.909-.507 1.257-.332.351-.811.617-1.436.797-.622.184-1.36.276-2.214.276-.861 0-1.603-.092-2.229-.276-.625-.18-1.105-.446-1.44-.797a1.756 1.756 0 0 1-.498-1.257c0-.49.166-.909.498-1.257.335-.351.815-.619 1.44-.803.626-.183 1.368-.275 2.229-.275zm0 1.025c-.603 0-1.118.051-1.547.154-.429.1-.756.25-.981.45a.91.91 0 0 0-.334.706c0 .277.111.514.334.71.225.197.552.347.981.45.429.103.944.153 1.547.15.596.003 1.109-.047 1.537-.15.432-.103.762-.253.991-.45.229-.196.344-.433.344-.71 0-.274-.115-.509-.344-.706-.229-.2-.559-.35-.991-.45-.428-.103-.941-.154-1.537-.154zm-1.745-6.464c0 .751-.142 1.457-.426 2.118a5.165 5.165 0 0 1-1.213 1.735 5.136 5.136 0 0 1-1.847 1.122l-.677-1.03a4.89 4.89 0 0 0 1.639-.928 4.231 4.231 0 0 0 1.074-1.383 3.825 3.825 0 0 0 .377-1.634v-.947h1.073v.947zm.237 0c0 .526.124 1.027.372 1.504.248.477.603.902 1.063 1.276a5.007 5.007 0 0 0 1.63.851l-.663 1.015a5.134 5.134 0 0 1-1.837-1.025 4.74 4.74 0 0 1-1.634-3.621v-.947h1.069v.947zm2.697-.208h-6.763v-1.058h6.763v1.058zm8.102 5.009c0 1.195-.158 2.304-.474 3.326a9.86 9.86 0 0 1-1.407 2.837h-1.339c.316-.422.605-.971.866-1.648.261-.677.465-1.41.614-2.2.151-.792.227-1.564.227-2.315 0-.751-.076-1.521-.227-2.311a12.544 12.544 0 0 0-.614-2.204c-.261-.68-.55-1.232-.866-1.654h1.339a9.932 9.932 0 0 1 1.407 2.843c.316 1.018.474 2.127.474 3.326zm16.355.488h-11.192v-1.035h11.192v1.035zm-4.951-.624h-1.3v-1.938h1.3v1.938zm3.67-1.474h-8.451v-1.01h8.451v1.01zm-.083-4.013h-7.062v3.549h-1.306v-4.578h8.368v1.029zm-.314 1.958h-7.135v-.966h7.135v.966zm-3.92 4.955c.896-.003 1.659.071 2.291.223.635.148 1.117.372 1.446.672.328.296.494.657.497 1.083a1.424 1.424 0 0 1-.497 1.087c-.326.297-.806.519-1.441.668-.632.148-1.397.222-2.296.222-.906 0-1.676-.074-2.311-.222-.632-.149-1.114-.371-1.446-.668a1.41 1.41 0 0 1-.493-1.087c0-.426.165-.787.493-1.083.332-.3.816-.524 1.451-.672.635-.152 1.403-.226 2.306-.223zm0 .972c-.645 0-1.186.037-1.625.111-.438.074-.768.187-.991.339-.222.151-.332.337-.328.556-.004.222.106.407.328.556.223.148.553.257.991.328.439.074.98.11 1.625.107a9.575 9.575 0 0 0 1.614-.107c.435-.071.764-.18.987-.328.222-.149.335-.334.338-.556-.003-.219-.116-.405-.338-.556-.223-.152-.553-.265-.992-.339a9.81 9.81 0 0 0-1.609-.111zm12.583-7.246h-5.415v-1.074h5.415v1.074zm-2.359 4.757h-1.286v-3.075h1.286v3.075zm3.123-5.043a28.413 28.413 0 0 1-.068 1.721 15.063 15.063 0 0 1-.242 1.794l-1.286-.111c.132-.674.218-1.262.256-1.765.039-.503.062-1.049.068-1.639V444.838h1.272V445.626zm2.871 7.489h-1.32v-9.205h1.32v9.205zm1.687-4.206h-2.253v-1.098h2.253v1.098zm-1.295 7h-8.32v-1.064h8.32v1.064zm-7.025-.725h-1.295v-2.901h1.295v2.901zm-3.156-4.984c1.485-.007 2.862-.034 4.128-.083a35.391 35.391 0 0 0 3.563-.314l.077.948c-1.137.2-2.336.333-3.596.401a83.53 83.53 0 0 1-4.051.101l-.121-1.053zm21.671-4.288h-5.414v-1.074h5.414v1.074zm-2.359 4.757h-1.286v-3.075h1.286v3.075zm3.123-5.043a27.62 27.62 0 0 1-.068 1.721 15.046 15.046 0 0 1-.241 1.794l-1.286-.111a15.63 15.63 0 0 0 .256-1.765 25.18 25.18 0 0 0 .068-1.639V444.838h1.271V445.626zm2.872 7.489h-1.32v-9.205h1.32v9.205zm1.687-4.206h-2.253v-1.098h2.253v1.098zm-1.296 7h-8.32v-1.064h8.32v1.064zm-7.024-.725h-1.296v-2.901h1.296v2.901zm-3.157-4.984a122.36 122.36 0 0 0 4.129-.083 35.418 35.418 0 0 0 3.563-.314l.077.948c-1.138.2-2.337.333-3.597.401-1.26.064-2.61.098-4.051.101l-.121-1.053zm13.594.082c1.205 0 2.17-.021 2.895-.063a19.712 19.712 0 0 0 2.19-.251l.136 1.058c-.751.132-1.494.218-2.229.256-.731.039-1.729.058-2.992.058h-.904v-1.058h.904zm4.438-1.818h-4.037v2.441h-1.305v-3.442h4.036v-1.643h-4.06v-1.044h5.366v3.688zm4.379 4.477h-1.295v-9.021h1.295v9.021zm-1.015-5.976h-2.567v-1.049h2.567v1.049zm1.363 8.9h-8.397v-1.073h8.397v1.073zm-7.101-.614h-1.296v-2.978h1.296v2.978zm5.738-5.53h-2.567v-1.059h2.567v1.059zm8.951-2.731h-6.075v-1.049h6.075v1.049zm-3.025.734c.51 0 .967.121 1.373.363.402.242.722.577.952 1.006.22.425.34.908.34 1.45 0 .551-.12 1.042-.34 1.474-.23.429-.55.766-.952 1.011a2.637 2.637 0 0 1-1.373.362c-.509 0-.965-.121-1.368-.362a2.578 2.578 0 0 1-.947-1.011c-.229-.432-.342-.923-.339-1.474a2.971 2.971 0 0 1 .339-1.45c.229-.429.544-.764.947-1.006a2.605 2.605 0 0 1 1.368-.363zm0 1.083a1.47 1.47 0 0 0-.783.223 1.464 1.464 0 0 0-.536.614 2.023 2.023 0 0 0-.194.899c0 .345.065.648.194.909.129.257.307.461.536.609.229.145.49.216.783.212.29.004.552-.067.784-.212.232-.148.41-.353.536-.614.129-.261.194-.563.194-.904 0-.335-.065-.635-.194-.899a1.424 1.424 0 0 0-.536-.614 1.49 1.49 0 0 0-.784-.223zm7.465 7.353h-1.23v-12.25h1.23v12.25zm-.83-6.086h-2.25v-1.059h2.25v1.059zm-1.81 5.511h-1.23v-11.399h1.23v11.399zm-4.182-8.992h-1.286v-2.32h1.286v2.32zm18.012 2.442h-3.38v-1.054h3.38v1.054zm-5.41-2.007a9.163 9.163 0 0 1-.43 2.717 7.762 7.762 0 0 1-1.19 2.325c-.52.677-1.12 1.191-1.79 1.543l-.82-1.045a5 5 0 0 0 1.65-1.319c.48-.584.85-1.243 1.12-1.978.26-.734.39-1.482.4-2.243v-2.098h1.06v2.098zm.25 0c0 .748.13 1.476.39 2.185.26.709.63 1.341 1.1 1.895.47.552 1.02.964 1.64 1.238l-.79 1.044a5.37 5.37 0 0 1-1.79-1.484 7.31 7.31 0 0 1-1.18-2.229 8.3 8.3 0 0 1-.42-2.649v-2.098h1.05v2.098zm5.8 9.156h-1.29V443.91h1.29v12.274zm11.8-7.647h-8.44v-1.04h8.44v1.04zm1.27 2.581h-11.21v-1.039h11.21v1.039zm-8.43-3.094h-1.28v-3.669h1.28v3.669zm7.24 7.846h-8.61v-1.059h8.61v1.059zm-7.32-.764h-1.29v-2.823h1.29v2.823zm22.07-8.513h-3.36v-.996h3.36v.996zm0 2.234h-3.36v-1.006h3.36v1.006zm.97 1.455h-1.28v-6.372h1.28v6.372zm0 3.563h-6.69v1.803h-1.3v-2.78h6.71v-1.02h-6.73v-1.02h8.01v3.017zm.44 2.161h-8.43v-1.04h8.43v1.04zm-8.76-9.887h3.07v-1.653h1.29v5.366h-5.66v-5.366h1.3v1.653zm3.07 2.679v-1.673h-3.07v1.673h3.07zm17.07 1.808h-8.53v-1.04h8.53v1.04zm1.29 4.056h-11.21v-1.074h11.21v1.074zm-4.99-.672h-1.29v-3.969h1.29v3.969zm3.59-8.078h-7.12v4.133h-1.3v-5.182h8.42v1.049zm16.9 5.25h-11.21v-1.059h11.21v1.059zm-4.86 2.373h-1.29v-2.77h1.29v2.77zm3.41-4.699h-8.32v-4.351h8.32v4.351zm-7.05-1.025h5.77v-2.301h-5.77v2.301zm7.26 8.098h-8.57v-1.064h8.57v1.064zm-7.28-.701h-1.29v-2.833h1.29v2.833zm13.42-10.428c.63 0 1.21.123 1.71.368.51.245.9.59 1.19 1.034.28.445.43.951.43 1.518a2.77 2.77 0 0 1-.43 1.513c-.29.442-.68.787-1.19 1.035-.5.248-1.08.372-1.71.372-.64 0-1.21-.124-1.72-.372a2.843 2.843 0 0 1-1.19-1.035 2.703 2.703 0 0 1-.43-1.513c0-.564.14-1.068.43-1.513a2.8 2.8 0 0 1 1.19-1.034c.51-.249 1.08-.373 1.72-.373zm0 1.127c-.4 0-.75.074-1.06.222-.31.148-.56.359-.74.633-.17.274-.26.587-.26.938 0 .355.09.669.26.943.18.271.43.48.74.628.31.149.66.223 1.06.223.39 0 .75-.074 1.06-.223.32-.148.56-.357.73-.628.18-.274.27-.588.27-.943 0-.351-.09-.664-.27-.938a1.644 1.644 0 0 0-.73-.633 2.452 2.452 0 0 0-1.06-.222zm6.14 10.277h-1.3V443.91h1.3v12.274zm-10.07-3.717c.94 0 1.84-.007 2.69-.019a57.41 57.41 0 0 0 2.67-.117c.93-.061 1.81-.151 2.64-.27l.1.947c-.85.161-1.74.282-2.66.363-.92.077-1.78.127-2.59.15-.8.019-1.7.029-2.69.029l-.16-1.083zm25.63-2.219h-1.3v-6.338h1.3v6.338zm0 3.592h-6.81v1.75h-1.28v-2.698h6.81v-1.068h-6.85v-1.015h8.13v3.031zm.43 2.204h-8.52V455h8.52v1.044zm-3.42-10.306h-6.65v-1.016h6.65v1.016zm-6.98 3.089c1.41-.007 2.75-.034 4.02-.083 1.26-.051 2.44-.141 3.51-.27l.06.942c-1.12.171-2.32.29-3.61.358s-2.57.1-3.83.097l-.15-1.044zm2.73.483h-1.24v-4.133h1.24v4.133zm3.08 0h-1.25v-4.133h1.25v4.133zm10.04 4.477h-1.27v-3.592h1.27v3.592zm4.57 0h-1.31v-3.592h1.31v3.592zm2.69.846h-11.22v-1.074h11.22v1.074zm-5.64-10.012c.87.003 1.65.138 2.34.406.68.264 1.22.64 1.61 1.126.39.484.58 1.041.58 1.673 0 .632-.19 1.189-.58 1.673-.39.48-.93.852-1.61 1.116-.69.261-1.47.392-2.34.392-.87 0-1.65-.131-2.34-.392-.68-.264-1.21-.636-1.6-1.116a2.64 2.64 0 0 1-.58-1.673c0-.635.2-1.194.58-1.678.39-.483.92-.857 1.6-1.121.69-.268 1.47-.403 2.34-.406zm0 1.049c-.64-.003-1.2.082-1.69.256s-.88.426-1.15.754c-.28.329-.41.711-.41 1.146 0 .429.13.807.41 1.136.27.326.66.579 1.15.759.49.18 1.05.271 1.69.271.63 0 1.2-.091 1.69-.271.5-.18.88-.433 1.16-.759.27-.329.41-.707.41-1.136 0-.435-.14-.817-.41-1.146-.28-.328-.66-.58-1.16-.754-.49-.174-1.06-.259-1.69-.256z" fill="#616161"/>
    <path stroke="#3352F6" stroke-width="2" stroke-dasharray="4 4" d="M48 221h980"/>
    <rect x="41" y="201" width="96" height="40" rx="6" fill="#C9D2FF"/>
    <path d="M67.432 225.171H65.45v-2.32h1.983v2.32zm6.282 3.271H71.73V214.21h1.983v14.232zm-11.442-4.017a208.39 208.39 0 0 0 3.11-.038 82.258 82.258 0 0 0 2.763-.111 37.006 37.006 0 0 0 2.806-.27l.133 1.48c-.961.166-1.961.291-3 .376-1.035.081-2.02.132-2.956.155-.932.022-1.944.033-3.038.033l-.26-1.625h.442zm8.475-7.06h-8.635v-1.564h8.635v1.564zm-4.326.558c.696 0 1.317.114 1.862.342.545.225.967.54 1.265.945.302.405.453.869.453 1.392 0 .52-.15.982-.453 1.387-.302.401-.725.714-1.27.939-.542.225-1.16.337-1.857.337-.692 0-1.306-.112-1.84-.337-.534-.225-.95-.538-1.248-.939a2.278 2.278 0 0 1-.448-1.387c0-.523.15-.987.448-1.392.298-.405.714-.72 1.248-.945.534-.228 1.148-.342 1.84-.342zm0 1.519c-.324 0-.61.046-.856.138-.247.092-.44.225-.58.398a.978.978 0 0 0-.205.624c0 .243.068.451.205.625.14.169.333.3.58.392.246.088.532.132.856.132.335 0 .628-.044.879-.132.254-.092.449-.223.585-.392a.966.966 0 0 0 .21-.625.961.961 0 0 0-.21-.624 1.276 1.276 0 0 0-.585-.398 2.545 2.545 0 0 0-.879-.138zm1.022-2.751H65.45v-2.409h1.994v2.409zm13.906 7.944h-2v-3.138h2v3.138zm6.292.343h-2v-10.746h2v10.746zm.315 3.215H77.354v-1.607h10.602v1.607zm-8.607-1.182h-1.995v-3.066h1.995v3.066zm-3.68-6.475c1.842-.015 3.477-.05 4.906-.105a46.454 46.454 0 0 0 4.094-.332l.116 1.431c-.954.159-1.952.282-2.994.371a60.657 60.657 0 0 1-3.017.171c-.972.026-1.972.038-3 .038l-.237-1.574h.132zm10.425 3.304h-3.17v-1.359h3.17v1.359zm-5.928-9.127c.682 0 1.293.107 1.835.32.541.214.963.516 1.265.906.302.387.453.829.453 1.326 0 .501-.151.939-.453 1.315-.302.376-.724.669-1.265.879-.538.21-1.15.314-1.835.314-.7 0-1.32-.103-1.861-.309-.538-.21-.958-.503-1.26-.878a2.062 2.062 0 0 1-.453-1.321c0-.497.15-.939.453-1.326.302-.39.724-.692 1.265-.906.541-.213 1.16-.32 1.856-.32zm0 1.458c-.338 0-.635.043-.89.127-.253.085-.45.21-.59.376a.887.887 0 0 0-.205.591c0 .225.068.416.205.575.14.158.337.28.59.364.255.085.552.127.89.127.325 0 .61-.042.857-.127.25-.084.445-.206.585-.364a.826.826 0 0 0 .216-.575.86.86 0 0 0-.216-.591 1.283 1.283 0 0 0-.585-.376 2.655 2.655 0 0 0-.857-.127zm20.475 12.238h-1.995V214.21h1.995v14.199zm2.011-7.1h-2.525v-1.646h2.525v1.646zm-5.807-5.64c-.003 1.484-.217 2.854-.64 4.11-.424 1.252-1.113 2.405-2.067 3.459-.95 1.049-2.199 1.954-3.746 2.712l-1.121-1.525c1.27-.64 2.32-1.366 3.149-2.176a7.873 7.873 0 0 0 1.85-2.757c.41-1.028.614-2.183.614-3.464v-.359h1.961zm-.95 1.629h-5.823v-1.629h5.823v1.629zm19.259 4.564h-2v-7.652h2v7.652zm-7.547 1.945h5.558v-1.321h1.989v5.796h-9.508v-5.796h1.961v1.321zm5.558 2.862v-1.315h-5.558v1.315h5.558zm-5.806-11.862c.732-.004 1.395.138 1.988.425a3.335 3.335 0 0 1 1.393 1.199c.335.516.502 1.099.502 1.751 0 .638-.167 1.21-.502 1.719-.335.504-.801.9-1.398 1.187-.593.284-1.254.426-1.983.426-.733 0-1.396-.142-1.989-.426a3.46 3.46 0 0 1-1.398-1.187 3.056 3.056 0 0 1-.503-1.719c0-.652.168-1.235.503-1.751a3.374 3.374 0 0 1 1.398-1.199c.593-.287 1.256-.429 1.989-.425zm0 1.663a2.275 2.275 0 0 0-1.012.204 1.583 1.583 0 0 0-.69.597 1.648 1.648 0 0 0-.238.911c-.003.347.076.649.238.906.166.255.394.45.685.586.295.133.633.201 1.017.204.372-.003.703-.071.994-.204.291-.136.517-.331.68-.586.162-.257.243-.559.243-.906 0-.35-.083-.653-.249-.911a1.552 1.552 0 0 0-.68-.597 2.17 2.17 0 0 0-.988-.204z" fill="#3352F6"/>
    <rect x="193" y="201" width="127" height="40" rx="6" fill="#C9D2FF"/>
    <path d="M219.26 225.171h-1.983v-2.32h1.983v2.32zm6.282 3.271h-1.983V214.21h1.983v14.232zm-11.442-4.017a208.52 208.52 0 0 0 3.111-.038 82.199 82.199 0 0 0 2.762-.111 37.022 37.022 0 0 0 2.807-.27l.132 1.48c-.961.166-1.961.291-3 .376-1.035.081-2.02.132-2.956.155-.931.022-1.944.033-3.038.033l-.26-1.625h.442zm8.475-7.06h-8.635v-1.564h8.635v1.564zm-4.326.558c.696 0 1.317.114 1.862.342.545.225.967.54 1.265.945.302.405.453.869.453 1.392 0 .52-.151.982-.453 1.387-.302.401-.725.714-1.27.939-.542.225-1.161.337-1.857.337-.692 0-1.305-.112-1.84-.337-.534-.225-.95-.538-1.248-.939a2.274 2.274 0 0 1-.448-1.387c0-.523.149-.987.448-1.392.298-.405.714-.72 1.248-.945.535-.228 1.148-.342 1.84-.342zm0 1.519c-.324 0-.609.046-.856.138-.247.092-.44.225-.58.398a.974.974 0 0 0-.205.624c0 .243.068.451.205.625.14.169.333.3.58.392.247.088.532.132.856.132.335 0 .628-.044.879-.132.254-.092.449-.223.585-.392a.965.965 0 0 0 .21-.625.96.96 0 0 0-.21-.624 1.273 1.273 0 0 0-.585-.398 2.55 2.55 0 0 0-.879-.138zm1.022-2.751h-1.994v-2.409h1.994v2.409zm13.011.745a12.96 12.96 0 0 1-.442 3.398c-.288 1.057-.728 1.995-1.321 2.812a5.903 5.903 0 0 1-2.182 1.873l-1.221-1.618a5.316 5.316 0 0 0 1.961-1.547 6.939 6.939 0 0 0 1.188-2.277 8.978 8.978 0 0 0 .398-2.641v-2.127h1.619v2.127zm.375 0a8.51 8.51 0 0 0 .365 2.536 6.817 6.817 0 0 0 1.133 2.183 5.23 5.23 0 0 0 1.862 1.502l-1.205 1.586a5.592 5.592 0 0 1-2.099-1.801 8.345 8.345 0 0 1-1.254-2.718 12.728 12.728 0 0 1-.398-3.288v-2.127h1.596v2.127zm5.984 11.006h-1.995V214.21h1.995v14.232zm2.099-7.061h-2.541v-1.685h2.541v1.685zm11.027-2.077h-2.74v-1.624h2.74v1.624zm1.47 3.359h-1.989v-8.453h1.989v8.453zm-4.862.315c1.009 0 1.882.109 2.619.326.737.217 1.3.532 1.69.945.395.408.592.898.592 1.469a2.04 2.04 0 0 1-.592 1.47c-.39.409-.953.722-1.69.939-.737.221-1.61.332-2.619.332-1.009 0-1.88-.111-2.613-.332-.729-.217-1.291-.53-1.685-.939a2.023 2.023 0 0 1-.586-1.47 2.02 2.02 0 0 1 .586-1.469c.394-.413.957-.728 1.69-.945.733-.217 1.603-.326 2.608-.326zm0 1.514c-.633 0-1.166.046-1.597.138-.431.088-.757.225-.977.409a.844.844 0 0 0-.326.679c0 .269.108.494.326.674.22.181.546.317.977.409.431.089.964.133 1.597.133.634 0 1.166-.044 1.597-.133.434-.092.762-.228.983-.409a.847.847 0 0 0 .343-.674.853.853 0 0 0-.343-.679c-.221-.184-.549-.321-.983-.409-.431-.092-.963-.138-1.597-.138zm-2.166-7.917a7.43 7.43 0 0 1-.447 2.596 5.845 5.845 0 0 1-1.348 2.127c-.601.612-1.341 1.068-2.221 1.371l-1.033-1.581c.758-.25 1.396-.613 1.911-1.088a4.58 4.58 0 0 0 1.144-1.591 4.778 4.778 0 0 0 .376-1.834v-.934h1.618v.934zm.409-.017c0 .586.118 1.149.354 1.691a4.3 4.3 0 0 0 1.094 1.469c.49.435 1.097.772 1.823 1.011l-.984 1.569c-.858-.28-1.58-.709-2.165-1.287a5.602 5.602 0 0 1-1.315-2.011 6.871 6.871 0 0 1-.431-2.442v-.917h1.624v.917zm2.834.122h-7.712v-1.603h7.712v1.603zm18.635 10.105h-13.005v-1.619h13.005v1.619zm-5.547-1.21h-1.972v-3.492h1.972v3.492zm-4.083-8.238h6.199v-2.215h1.989v7.408h-10.188v-7.408h2v2.215zm6.199 3.602v-2.022h-6.199v2.022h6.199zm19.842.923h-2v-7.652h2v7.652zm-7.547 1.945h5.558v-1.321h1.989v5.796h-9.508v-5.796h1.961v1.321zm5.558 2.862v-1.315h-5.558v1.315h5.558zm-5.807-11.862c.733-.004 1.396.138 1.989.425a3.333 3.333 0 0 1 1.392 1.199c.336.516.503 1.099.503 1.751 0 .638-.167 1.21-.503 1.719-.335.504-.801.9-1.397 1.187-.593.284-1.254.426-1.984.426-.733 0-1.396-.142-1.989-.426a3.45 3.45 0 0 1-1.397-1.187 3.048 3.048 0 0 1-.503-1.719c0-.652.167-1.235.503-1.751a3.365 3.365 0 0 1 1.397-1.199c.593-.287 1.256-.429 1.989-.425zm0 1.663a2.274 2.274 0 0 0-1.011.204 1.578 1.578 0 0 0-.69.597 1.64 1.64 0 0 0-.238.911c-.004.347.076.649.238.906.165.255.394.45.685.586.294.133.633.201 1.016.204.372-.003.704-.071.995-.204a1.57 1.57 0 0 0 .679-.586c.162-.257.243-.559.243-.906 0-.35-.082-.653-.248-.911a1.552 1.552 0 0 0-.68-.597 2.175 2.175 0 0 0-.989-.204zm11.348 4.536c1.436.003 2.554-.017 3.353-.061.8-.044 1.588-.14 2.365-.288l.182 1.597c-.784.136-1.593.227-2.425.271-.833.04-1.991.064-3.475.072h-1.072v-1.591h1.072zm5.193-1.525h-4.293v2.563h-1.972v-4.038h4.276v-1.398h-4.298v-1.564h6.287v4.437zm5.166 3.508h-1.989v-8.757h1.989v8.757zm-1.63-5.21h-2.713v-1.575h2.713v1.575zm0 3.022h-2.713v-1.58h2.713v1.58zm1.63 7.641h-1.989v-3.232h-7.812v-1.591h9.801v4.823zM192.993 220.996l-5.955-4.038v8.076l5.955-4.038z" fill="#3352F6"/>
    <path d="M368 77v291h196V77M368 76.864h196" stroke="#3352F6" stroke-width="2" stroke-dasharray="4 4"/>
    <path d="M513.307 115.523h-8.393v-.87h8.393v.87zm1.315 4.052h-11.129v-.9h11.129v.9zm-5.067-.532h-1.063v-4.013h1.063v4.013zm3.636-8.218h-7.203v4.234h-1.074v-5.114h8.277v.88zm8.464 6.439h-1.054v-2.118h1.054v2.118zm-.532-8.073c.88 0 1.642.09 2.287.27.647.181 1.144.443 1.489.788.344.345.517.756.517 1.233 0 .471-.173.875-.517 1.213-.345.339-.842.598-1.489.779-.645.177-1.407.264-2.287.261-.877.003-1.637-.084-2.282-.261-.644-.181-1.142-.44-1.493-.779a1.633 1.633 0 0 1-.527-1.213c0-.477.174-.888.522-1.233.348-.345.846-.607 1.493-.788.648-.18 1.41-.27 2.287-.27zm0 .841c-.651 0-1.217.058-1.697.174-.48.116-.851.283-1.112.503-.257.215-.385.473-.382.773-.003.293.125.546.382.759.261.21.632.371 1.112.483.48.113 1.046.17 1.697.17s1.217-.057 1.697-.17c.48-.112.851-.273 1.112-.483.261-.213.391-.466.391-.759 0-.3-.13-.558-.391-.773-.261-.22-.633-.387-1.117-.503-.48-.116-1.044-.174-1.692-.174zm4.187 10.916h-8.364v-3.994h8.364v3.994zm-7.3-.88h6.255v-2.253h-6.255v2.253zm8.663-4.506h-11.08v-.889h11.08v.889zm10.523-.416h-1.073v-6.187h1.073v6.187zm1.828-2.649h-2.311v-.899h2.311v.899zm-5.192 2.011h-5.618v-4.853h5.618v4.853zm-4.573-.86h3.529v-3.123h-3.529v3.123zm7.937 5.037h-6.671v1.856h-1.054v-2.668h6.662v-1.286h-6.691v-.86h7.754v2.958zm.445 2.263h-8.17v-.871h8.17v.871z" fill="#999"/>
    <path d="M489.843 115.985c0-.263.037-.498.112-.705.075-.207.195-.402.361-.585.174-.183.402-.37.684-.561.249-.175.448-.33.598-.466.157-.135.269-.27.336-.406a.927.927 0 0 0 .112-.453c0-.255-.1-.446-.299-.574-.191-.135-.461-.203-.809-.203-.348 0-.693.052-1.033.156-.34.103-.689.242-1.045.418l-.66-1.278a6.82 6.82 0 0 1 1.319-.525 5.618 5.618 0 0 1 1.556-.203c.863 0 1.531.199 2.003.597.482.398.722.903.722 1.516 0 .326-.054.609-.162.848a2.14 2.14 0 0 1-.485.668 8.394 8.394 0 0 1-.809.645c-.24.167-.427.311-.56.43a1.081 1.081 0 0 0-.274.346 1.224 1.224 0 0 0-.062.418v.347h-1.605v-.43zm-.199 2.424c0-.367.103-.621.311-.765.207-.151.46-.226.759-.226.29 0 .539.075.747.226.207.144.311.398.311.765 0 .35-.104.605-.311.764a1.237 1.237 0 0 1-.747.227c-.299 0-.552-.076-.759-.227-.208-.159-.311-.414-.311-.764z" fill="#9E9E9E"/>
    <circle cx="491" cy="115" r="7.5" stroke="#9E9E9E"/>
    <rect x="389" y="57" width="155" height="40" rx="6" fill="#3352F6"/>
    <path d="M417.344 81.05h-6.868v-9.542h6.868v9.542zm-4.884-1.58h2.95v-6.41h-2.95v6.41zm9.21 5.005h-2.017V70.21h2.017v14.265zm13.883-.033h-1.983V70.21h1.983v14.232zm-9.221-4.039h-1.972v-8.828h1.972v8.828zm-.718-1.171c1.116 0 2.245-.05 3.387-.15 1.141-.099 2.276-.257 3.403-.474l.249 1.646a31.76 31.76 0 0 1-3.514.525c-1.16.103-2.335.153-3.525.15h-1.254v-1.697h1.254zm24.817 3.552h-13.006v-1.651h13.006v1.651zm-1.083-9.718h-10.906v-1.602h10.906v1.602zm-.066 5.879h-10.779V77.37h10.779v1.575zm-6.884-1.426h-1.989v-4.613h1.989v4.613zm4.945 0h-1.967v-4.613h1.967v4.613zm16.916 5.332h-13.005v-1.63h13.005v1.63zm-5.547-.945h-1.972v-3.381h1.972v3.381zm4.05-6.055h-8.022v2.425h-1.989v-3.989h8.038V72.74h-8.06v-1.602h10.033v4.713zm.331 3.22h-10.342v-1.618h10.342v1.619zm12.431-5.944h-9.1v-1.602h9.1v1.602zm2.53 9.442h-12.972v-1.624h12.972v1.624zm-1.602-9.276a89.926 89.926 0 0 1-.033 2.193 29.39 29.39 0 0 1-.133 2.061c-.074.77-.188 1.608-.342 2.514l-2.023-.16c.163-.84.282-1.634.36-2.382.081-.751.13-1.429.149-2.033.022-.604.033-1.32.033-2.149v-1.812h1.989v1.768zm14.673 5.32h-1.889v-8.381h1.889v8.381zm-1.364-3.442h-2.337v-1.596h2.337v1.596zm-1.763 3.326h-1.856v-8.016h1.856v8.016zm3.127 5.785h-9.707v-5.089h9.707v5.089zm-7.723-1.597h5.751v-1.917h-5.751v1.917zm-2.934-6.1c.792 0 1.445-.009 1.961-.027a24.89 24.89 0 0 0 1.519-.1c.494-.047.999-.12 1.514-.215l.183 1.564c-.77.136-1.523.224-2.26.265-.737.037-1.709.055-2.917.055h-.984v-1.541h.984zm4.42-1.287h-3.475v2.486h-1.929v-3.972h3.487V72.62h-3.509V71.06h5.426v4.237zm23.797 9.144h-1.917V70.21h1.917v14.232zm-1.342-7.238h-2.42v-1.602h2.42v1.602zm-4.741-5.232c0 1.396-.16 2.665-.48 3.807a8.933 8.933 0 0 1-1.63 3.16c-.766.965-1.798 1.823-3.094 2.575l-1.149-1.381c1.086-.634 1.955-1.334 2.607-2.1a7.186 7.186 0 0 0 1.42-2.536c.291-.924.437-1.97.437-3.138v-.387h1.889zm-1.315 1.597h-4.32v-1.597h4.32v1.597zm4.177 10.238h-1.851V70.586h1.851v13.22zm15.662-9.89h-3.546v-1.58h3.546v1.58zm1.111 3.542h-1.989v-7.25h1.989v7.25zm0 4.392h-7.475v1.812h-1.961v-3.27h7.458v-.813h-7.481V78.04h9.459v3.812zm.409 2.43h-9.845v-1.568h9.845v1.569zm-7.481-12.568c0 .917-.145 1.766-.436 2.547a5.391 5.391 0 0 1-1.337 2.027c-.597.575-1.336 1-2.216 1.276l-1.038-1.58c.762-.224 1.399-.552 1.911-.983.512-.435.89-.932 1.133-1.492.246-.56.372-1.158.375-1.795v-1.028h1.608v1.028zm.415 0c-.004.593.11 1.15.342 1.674.232.523.591.99 1.077 1.403.487.409 1.096.722 1.829.94l-1.05 1.535c-.843-.269-1.552-.674-2.127-1.215a5.273 5.273 0 0 1-1.287-1.923 6.596 6.596 0 0 1-.431-2.414v-1.028h1.647v1.028z" fill="#fff"/>
    <path d="m388.993 76.997-5.955-4.039v8.076l5.955-4.037z" fill="#3352F6"/>
    <rect x="417" y="201" width="99" height="40" rx="6" fill="#3352F6"/>
    <path d="M442.227 216.26c0 .968-.146 1.865-.437 2.69a5.833 5.833 0 0 1-1.32 2.16c-.59.612-1.319 1.067-2.188 1.365l-1.072-1.563c.762-.258 1.398-.625 1.906-1.1a4.457 4.457 0 0 0 1.122-1.619 5.239 5.239 0 0 0 .37-1.933v-1.288h1.619v1.288zm.375.193c0 .597.118 1.16.354 1.691.236.53.596 1.005 1.083 1.425.486.416 1.092.735 1.817.956l-1.055 1.552c-.832-.276-1.534-.69-2.105-1.243a5.355 5.355 0 0 1-1.282-1.95 6.758 6.758 0 0 1-.414-2.431v-1.481h1.602v1.481zm6.105 6.199h-2v-8.442h2v8.442zm1.912-3.459h-2.475v-1.652h2.475v1.652zm-6.58 3.752c.979-.004 1.83.103 2.552.32.722.218 1.276.532 1.663.945.391.412.586.902.586 1.47 0 .578-.194 1.075-.58 1.491-.387.416-.941.731-1.663.945-.722.217-1.575.324-2.558.32-.995.004-1.859-.103-2.591-.32-.733-.217-1.297-.534-1.691-.95a2.084 2.084 0 0 1-.586-1.486c0-.568.195-1.058.586-1.47.394-.413.958-.727 1.691-.945.736-.217 1.6-.324 2.591-.32zm0 1.552c-.619 0-1.142.046-1.569.138-.428.089-.752.221-.973.398-.221.177-.331.392-.331.647 0 .268.108.491.326.668.221.177.543.309.967.398.427.085.954.129 1.58.132.626-.003 1.147-.047 1.563-.132.42-.089.737-.221.95-.398a.832.832 0 0 0 .321-.668.81.81 0 0 0-.321-.647c-.213-.177-.532-.309-.955-.398-.424-.092-.943-.138-1.558-.138zm17.723-5.375h-2.768v-1.625h2.768v1.625zm1.475 3.326h-1.989v-8.238h1.989v8.238zm0 5.834h-9.558v-5.26h9.558v5.26zm-7.564-1.597h5.614v-2.088h-5.614v2.088zm.536-10.237c0 .92-.149 1.782-.447 2.585a5.703 5.703 0 0 1-1.348 2.105c-.601.597-1.341 1.037-2.221 1.321l-1.022-1.569c.758-.244 1.392-.597 1.9-1.061a4.47 4.47 0 0 0 1.138-1.564 4.618 4.618 0 0 0 .382-1.817v-.918h1.618v.918zm.409.016c0 .575.118 1.133.354 1.674a4.372 4.372 0 0 0 1.094 1.47c.49.438 1.097.779 1.823 1.022l-.984 1.569c-.861-.284-1.585-.713-2.171-1.287a5.606 5.606 0 0 1-1.309-2 6.896 6.896 0 0 1-.431-2.448v-.934h1.624v.934zm2.834.077h-7.712v-1.596h7.712v1.596zm20.19 1.376h-3.547v-1.58h3.547v1.58zm1.111 3.542h-1.989v-7.249h1.989v7.249zm0 4.392h-7.476v1.812h-1.961v-3.271h7.459v-.812h-7.481v-1.541h9.459v3.812zm.408 2.431h-9.845v-1.569h9.845v1.569zm-7.48-12.569a7.24 7.24 0 0 1-.437 2.547 5.374 5.374 0 0 1-1.337 2.027c-.596.575-1.335 1-2.215 1.277l-1.039-1.581c.763-.224 1.4-.552 1.912-.983a4.085 4.085 0 0 0 1.132-1.492c.247-.56.372-1.158.376-1.795v-1.028h1.608v1.028zm.414 0a4.014 4.014 0 0 0 .343 1.674c.232.523.591.991 1.077 1.403.486.409 1.096.722 1.829.939l-1.05 1.536c-.843-.269-1.552-.674-2.127-1.215a5.27 5.27 0 0 1-1.287-1.923 6.574 6.574 0 0 1-.431-2.414v-1.028h1.646v1.028zm19.016 3.591h-2.74v-1.624h2.74v1.624zm1.47 3.359h-1.989v-8.453h1.989v8.453zm-4.862.315c1.009 0 1.882.109 2.619.326.736.217 1.3.532 1.69.945.394.408.591.898.591 1.469 0 .571-.197 1.061-.591 1.47-.39.409-.954.722-1.69.939-.737.221-1.61.332-2.619.332-1.009 0-1.88-.111-2.613-.332-.73-.217-1.291-.53-1.686-.939a2.022 2.022 0 0 1-.585-1.47 2.018 2.018 0 0 1 .585-1.469c.395-.413.958-.728 1.691-.945.733-.217 1.602-.326 2.608-.326zm0 1.514c-.634 0-1.166.046-1.597.138-.431.088-.757.225-.978.409a.847.847 0 0 0-.326.679c0 .269.109.494.326.674.221.181.547.317.978.409.431.089.963.133 1.597.133.633 0 1.166-.044 1.597-.133.434-.092.762-.228.983-.409a.844.844 0 0 0 .342-.674.849.849 0 0 0-.342-.679c-.221-.184-.549-.321-.983-.409-.431-.092-.964-.138-1.597-.138zm-2.166-7.917a7.43 7.43 0 0 1-.447 2.596 5.845 5.845 0 0 1-1.348 2.127c-.601.612-1.341 1.068-2.221 1.371l-1.034-1.581c.759-.25 1.396-.613 1.912-1.088a4.58 4.58 0 0 0 1.144-1.591 4.777 4.777 0 0 0 .375-1.834v-.934h1.619v.934zm.409-.017c0 .586.118 1.149.354 1.691a4.31 4.31 0 0 0 1.093 1.469c.49.435 1.098.772 1.824 1.011l-.984 1.569c-.858-.28-1.58-.709-2.166-1.287a5.612 5.612 0 0 1-1.314-2.011 6.849 6.849 0 0 1-.431-2.442v-.917h1.624v.917zm2.834.122h-7.713v-1.603h7.713v1.603z" fill="#fff"/>
    <path d="m416.993 220.997-5.955-4.039v8.076l5.955-4.037z" fill="#3352F6"/>
    <rect x="386" y="348" width="161" height="40" rx="6" fill="#3352F6"/>
    <path d="M407.042 362.685h4.431c.839 0 1.565.162 2.176.486.612.321 1.076.77 1.393 1.348.32.575.48 1.238.48 1.989 0 .752-.162 1.415-.486 1.989a3.31 3.31 0 0 1-1.409 1.343c-.618.317-1.353.475-2.204.475h-2.845v-1.895h2.464c.453 0 .834-.079 1.143-.238.31-.162.54-.385.691-.668.155-.287.232-.623.232-1.006s-.077-.716-.232-1a1.535 1.535 0 0 0-.691-.657c-.309-.159-.692-.238-1.149-.238h-1.646V374h-2.348v-11.315zm17.471 3.646a2.389 2.389 0 0 0-.486-.917 2.12 2.12 0 0 0-.812-.591 2.763 2.763 0 0 0-1.105-.21c-.582 0-1.094.148-1.536.442-.442.291-.786.715-1.033 1.271-.243.556-.365 1.225-.365 2.005 0 .789.12 1.463.359 2.023.243.556.586.981 1.028 1.276.446.294.971.442 1.575.442.537 0 1.001-.098 1.392-.293.394-.199.694-.479.9-.84.207-.361.31-.784.31-1.27l.48.071h-2.928v-1.779h4.718v1.415c0 .972-.208 1.819-.624 2.541a4.18 4.18 0 0 1-1.729 1.663c-.74.383-1.586.575-2.536.575-1.053 0-1.983-.236-2.79-.707-.803-.472-1.427-1.144-1.873-2.017-.442-.873-.663-1.899-.663-3.077 0-1.194.228-2.229.685-3.105.461-.881 1.09-1.553 1.89-2.017.799-.468 1.699-.702 2.701-.702.84 0 1.608.162 2.304.487.7.32 1.271.769 1.713 1.348.442.574.714 1.23.818 1.966h-2.393zm4.675 3.128c0-1.374.184-2.638.552-3.79a10.588 10.588 0 0 1 1.68-3.21h2.204c-.379.482-.723 1.106-1.033 1.872a13.81 13.81 0 0 0-.729 2.498 13.531 13.531 0 0 0-.265 2.63c0 .854.088 1.731.265 2.629.177.895.42 1.726.729 2.492.31.766.654 1.391 1.033 1.873h-2.204a10.523 10.523 0 0 1-1.68-3.204c-.368-1.157-.552-2.42-.552-3.79zm10.334-4.371a10.934 10.934 0 0 1-.476 3.205 8.418 8.418 0 0 1-1.386 2.701 5.795 5.795 0 0 1-2.199 1.763l-1.133-1.564a5.304 5.304 0 0 0 1.945-1.48 6.785 6.785 0 0 0 1.221-2.172c.273-.803.411-1.62.414-2.453v-1.652h1.614v1.652zm.414 0c0 .8.134 1.575.403 2.326a6.345 6.345 0 0 0 1.21 2.039 5.351 5.351 0 0 0 1.956 1.387l-1.072 1.563a5.78 5.78 0 0 1-2.237-1.668 7.738 7.738 0 0 1-1.376-2.564 10.047 10.047 0 0 1-.453-3.083v-1.652h1.569v1.652zm2.978-.873h-8.028v-1.629h8.028v1.629zm3.42 11.227h-2.017V361.21h2.017v14.232zm9.386-5.359h-2v-2.022h2v2.022zm-3.84-7.663h5.713v-.989h1.972v4.762h-9.646v-4.762h1.961v.989zm5.713 2.298v-.862h-5.713v.862h5.713zm3.641 3.829h-12.973v-1.608h12.973v1.608zm-1.586 4.486h-7.923v1.321h-1.955v-2.697h7.911v-.762h-7.922v-1.459h9.889v3.597zm.37 2.31H449.77v-1.503h10.248v1.503zm14.359.099h-1.884V361.21h1.884v14.232zm-1.426-7.138h-2.414v-1.597h2.414v1.597zm-1.828 6.442h-1.829v-13.287h1.829v13.287zm-7.641-4.194a46.41 46.41 0 0 0 2.674-.066 19.728 19.728 0 0 0 2.298-.287l.149 1.624c-.799.155-1.584.258-2.353.31-.77.051-1.693.079-2.768.082h-.995v-1.663h.995zm4.315-6.088h-3.31v6.895h-2v-8.497h5.31v1.602zm20.336 5.669h-1.889v-8.923h1.889v8.923zm-1.387-3.768h-2.326v-1.625h2.326v1.625zm-1.646 3.304h-1.862v-8.188h1.862v8.188zm-2.276-5.442h-6.984v-1.547h6.984v1.547zm-3.475.48c.6 0 1.134.103 1.602.31.471.206.84.499 1.105.878.269.376.403.808.403 1.298 0 .483-.134.91-.403 1.282-.265.372-.634.661-1.105.868-.468.206-1.002.309-1.602.309-.59 0-1.118-.103-1.586-.309a2.615 2.615 0 0 1-1.094-.868 2.153 2.153 0 0 1-.398-1.282c0-.49.133-.922.398-1.298.265-.379.63-.672 1.094-.878.468-.207.996-.31 1.586-.31zm0 1.437a1.626 1.626 0 0 0-.68.121 1.006 1.006 0 0 0-.453.365.955.955 0 0 0-.166.563c0 .214.054.4.16.558.111.159.264.28.459.365.195.085.422.125.68.122.257.003.486-.037.685-.122.199-.085.351-.206.458-.365a.946.946 0 0 0 .166-.558.97.97 0 0 0-.624-.928 1.665 1.665 0 0 0-.685-.121zm.977-2.393h-1.977v-2.408h1.977v2.408zm2.945 6.52c1.024 0 1.904.101 2.641.304.74.198 1.306.493 1.696.884.394.386.593.852.597 1.397a1.91 1.91 0 0 1-.597 1.398c-.39.387-.956.682-1.696.884-.74.203-1.621.302-2.641.298-1.016.004-1.895-.095-2.635-.298-.737-.202-1.302-.497-1.696-.884a1.87 1.87 0 0 1-.586-1.398 1.866 1.866 0 0 1 .586-1.397c.394-.387.959-.682 1.696-.884.74-.203 1.619-.304 2.635-.304zm0 1.491c-.648 0-1.189.039-1.624.116-.431.078-.757.199-.978.365-.217.162-.326.367-.326.613 0 .24.109.439.326.597.221.158.549.278.983.359.435.081.975.122 1.619.122.652 0 1.194-.041 1.625-.122.43-.081.755-.201.972-.359.217-.158.328-.357.331-.597-.003-.246-.114-.451-.331-.613-.214-.166-.538-.287-.972-.365-.431-.077-.973-.116-1.625-.116zm10.878-2.309c0 1.374-.184 2.637-.552 3.79a10.61 10.61 0 0 1-1.68 3.21h-2.204c.379-.482.723-1.107 1.033-1.873.309-.766.552-1.597.729-2.492.177-.898.265-1.777.265-2.635 0-.854-.088-1.729-.265-2.624a13.81 13.81 0 0 0-.729-2.498c-.31-.766-.654-1.39-1.033-1.872h2.204a10.518 10.518 0 0 1 1.68 3.21c.368 1.152.552 2.414.552 3.784zm13.987-2.867h-2.922v-1.619h2.922v1.619zm-.055 3.536h-2.945v-1.614h2.945v1.614zm3.923 5.32h-1.879V361.21h1.879v14.232zm-2.967-.635h-1.884v-13.271h1.884v13.271zm-3.177-11.901c0 1.4-.168 2.672-.503 3.818a9.094 9.094 0 0 1-1.652 3.166c-.769.965-1.793 1.826-3.071 2.585l-1.166-1.398c1.079-.641 1.946-1.342 2.602-2.105a7.2 7.2 0 0 0 1.425-2.524c.295-.921.444-1.965.448-3.133v-.409h1.917zm-1.249 1.602h-4.32v-1.602h4.32v1.602zm22.022.199h-2.459v-1.613h2.459v1.613zm0 3.105h-2.459v-1.652h2.459v1.652zm-1.84 1.79h-2v-8.392h2v8.392zm0 5.84h-2v-3.657h-7.574v-1.608h9.574v5.265zm-7.287-13.448c.725 0 1.383.15 1.972.448a3.433 3.433 0 0 1 1.398 1.238 3.25 3.25 0 0 1 .514 1.779 3.312 3.312 0 0 1-.514 1.801 3.445 3.445 0 0 1-1.392 1.237 4.332 4.332 0 0 1-1.978.448c-.733 0-1.398-.149-1.995-.448a3.479 3.479 0 0 1-1.397-1.237 3.237 3.237 0 0 1-.503-1.801 3.176 3.176 0 0 1 .503-1.779 3.423 3.423 0 0 1 1.397-1.238 4.405 4.405 0 0 1 1.995-.448zm0 1.702a2.378 2.378 0 0 0-1.006.216 1.594 1.594 0 0 0-.69.607c-.17.266-.253.579-.249.94-.004.372.079.692.249.961.169.269.399.475.69.619.295.143.63.213 1.006.21.368.003.698-.067.989-.21.294-.144.526-.35.696-.619.169-.269.254-.589.254-.961 0-.361-.085-.674-.254-.94a1.598 1.598 0 0 0-.696-.607 2.313 2.313 0 0 0-.989-.216z" fill="#fff"/>
    <path d="m385.993 367.997-5.955-4.039v8.076l5.955-4.037z" fill="#3352F6"/>
    <path d="M1096.67 189h3.33l-1.67 7H1095l1.67-7z" fill="#1EE0B2"/>
    <path d="m1049.26 186.22 2.52-2.22 3.4 6.402-2.52 2.22-3.4-6.402zM1062.88 156.428l1.77 2.856-6.88 2.282-1.77-2.856 6.88-2.282zM1019.47 162.606l2.95-1.606 1.9 6.996-2.95 1.607-1.9-6.997z" fill="#FFD029"/>
    <path d="m994.475 193.606 2.949-1.606 1.898 6.997-2.949 1.606-1.898-6.997z" fill="#1EE0B2"/>
    <circle cx="1028" cy="187" r="2" fill="#1EE0B2"/>
    <circle cx="1065" cy="176" r="2" fill="#FF29C3"/>
    <circle cx="1011" cy="182" r="2" fill="#FF29C3"/>
    <circle cx="1084" cy="176" r="2" fill="#FFD029"/>
    <circle cx="1040" cy="153" r="2" fill="#FF29C3"/>
    <rect x="787" y="201" width="68" height="40" rx="6" fill="#C9D2FF"/>
    <path d="M815.564 216.994h-7.668v-1.585h7.668v1.585zm-8.05 4.188c1.599-.007 3.115-.038 4.547-.094a48.004 48.004 0 0 0 4-.309l.15 1.464a33.254 33.254 0 0 1-4.039.437c-1.414.07-2.895.103-4.442.099l-.216-1.597zm3.465.315h-1.918v-4.889h1.918v4.889zm3.425 0h-1.917v-4.889h1.917v4.889zm4.475 3.205h-2v-10.47h2v10.47zm1.912-4.818h-2.487v-1.652h2.487v1.652zm-1.404 8.309h-9.734v-1.607h9.734v1.607zm-7.746-1.16h-1.988v-3.326h1.988v3.326zm22.105 1.409h-1.906V214.21h1.906v14.232zm-1.276-7.171h-2.409v-1.625h2.409v1.625zm-1.912 6.514h-1.884v-13.354h1.884v13.354zm-3.077-2.923h-5.658v-9.171h5.658v9.171zm-3.79-1.564h1.928v-6.038h-1.928v6.038zM786.993 220.997l-5.955-4.039v8.076l5.955-4.037z" fill="#3352F6"/>
    <rect x="623" y="194" width="119" height="54" rx="6" fill="#C9D2FF"/>
    <path d="M649.016 215.05h-6.868v-9.542h6.868v9.542zm-4.884-1.58h2.95v-6.409h-2.95v6.409zm9.21 5.005h-2.017V204.21h2.017v14.265zm13.883-.033h-1.983V204.21h1.983v14.232zm-9.221-4.039h-1.972v-8.828h1.972v8.828zm-.718-1.171c1.116 0 2.245-.05 3.386-.149 1.142-.1 2.277-.258 3.404-.475l.248 1.646a31.779 31.779 0 0 1-3.513.525 38.408 38.408 0 0 1-3.525.149h-1.254v-1.696h1.254zm24.817 3.553h-13.006v-1.652h13.006v1.652zm-1.083-9.719h-10.906v-1.602h10.906v1.602zm-.066 5.879h-10.779v-1.575h10.779v1.575zm-6.884-1.426h-1.989v-4.613h1.989v4.613zm4.944 0h-1.966v-4.613h1.966v4.613zm16.917 5.332h-13.006v-1.63h13.006v1.63zm-5.547-.945h-1.972v-3.381h1.972v3.381zm4.05-6.055h-8.022v2.425h-1.989v-3.989h8.038v-1.547h-8.06v-1.602h10.033v4.713zm.331 3.221h-10.342v-1.619h10.342v1.619zm12.431-5.945h-9.1v-1.602h9.1v1.602zm2.53 9.442h-12.972v-1.624h12.972v1.624zm-1.602-9.276a89.955 89.955 0 0 1-.033 2.193 29.403 29.403 0 0 1-.133 2.061c-.074.77-.188 1.608-.343 2.514l-2.022-.16c.162-.84.282-1.634.359-2.382.081-.751.131-1.429.15-2.033.022-.604.033-1.32.033-2.149v-1.812h1.989v1.768zm14.673 5.32h-1.889v-8.381h1.889v8.381zm-1.365-3.442h-2.337v-1.596h2.337v1.596zm-1.762 3.326h-1.856v-8.016h1.856v8.016zm3.127 5.785h-9.707v-5.089h9.707v5.089zm-7.724-1.597h5.752v-1.917h-5.752v1.917zm-2.933-6.099c.792 0 1.445-.01 1.961-.028a25.22 25.22 0 0 0 1.519-.099c.494-.048.998-.12 1.514-.216l.182 1.564c-.769.136-1.523.224-2.259.265-.737.037-1.709.055-2.917.055h-.984v-1.541h.984zm4.42-1.288h-3.476v2.487h-1.928v-3.973h3.486v-1.193h-3.508v-1.558h5.426v4.237zm-45.186 18.393h1.939v-3.21h1.845v9.585h-5.663v-9.585h1.879v3.21zm1.939 4.779v-3.216h-1.939v3.216h1.939zm8.105 4.972h-1.906V223.21h1.906v14.232zm-1.304-7.171H677.7v-1.625h2.414v1.625zm-1.884 6.514h-1.884v-13.354h1.884v13.354zm17.701-.934h-13.006v-1.658h13.006v1.658zm-5.564-.906h-1.972v-4.006h1.972v4.006zm4.481-8.945h-10.906v-1.591h10.906V226zm-.066 5.624h-10.779v-1.558h10.779v1.558zm-6.884-1.364h-1.989v-4.569h1.989v4.569zm4.945 0h-1.967v-4.569h1.967v4.569zM622.993 220.997l-5.955-4.039v8.076l5.955-4.037z" fill="#3352F6"/>
    <rect x="900" y="201" width="68" height="40" rx="6" fill="#C9D2FF"/>
    <path d="M922.874 218.691h1.939v-3.21h1.845v9.585h-5.663v-9.585h1.879v3.21zm1.939 4.779v-3.216h-1.939v3.216h1.939zm8.105 4.972h-1.906V214.21h1.906v14.232zm-1.304-7.171H929.2v-1.625h2.414v1.625zm-1.884 6.514h-1.884v-13.354h1.884v13.354zm12.148-5.973h-1.977v-2.563h1.977v2.563zm-.32-6.889c0 .876-.23 1.672-.691 2.386-.456.715-1.119 1.315-1.989 1.801-.865.483-1.891.813-3.077.989l-.713-1.558c1.013-.125 1.881-.37 2.603-.734.722-.365 1.265-.798 1.629-1.299.365-.501.549-1.029.553-1.585v-.47h1.685v.47zm.343 0c0 .574.18 1.11.541 1.607.361.498.902.927 1.624 1.288.722.357 1.599.598 2.63.723l-.768 1.558c-1.182-.18-2.204-.51-3.066-.989-.862-.478-1.523-1.075-1.984-1.79a4.303 4.303 0 0 1-.685-2.397v-.47h1.708v.47zm5.497 7.674h-12.973v-1.591h12.973v1.591zm-6.514.784c1.031 0 1.917.098 2.657.293.744.195 1.312.484 1.702.867.394.383.593.842.597 1.376a1.87 1.87 0 0 1-.591 1.376c-.391.379-.958.665-1.702.856-.74.195-1.628.291-2.663.287-1.035.004-1.926-.092-2.674-.287-.744-.191-1.315-.477-1.713-.856a1.841 1.841 0 0 1-.591-1.376c0-.534.199-.991.597-1.37.398-.383.968-.672 1.712-.867.744-.199 1.634-.299 2.669-.299zm0 1.514c-.67 0-1.223.037-1.657.111-.431.07-.756.182-.973.337-.213.151-.318.342-.315.574-.003.236.103.429.321.58.217.151.541.265.972.343.435.073.985.11 1.652.11.656 0 1.201-.037 1.635-.11.439-.078.768-.192.989-.343.221-.151.332-.344.332-.58 0-.232-.111-.423-.332-.574-.221-.155-.549-.267-.983-.337-.435-.074-.982-.111-1.641-.111zM899.993 220.997l-5.955-4.039v8.076l5.955-4.037z" fill="#3352F6"/>
    <rect x="1013" y="201" width="68" height="40" rx="8" fill="#C9D2FF"/>
    <path d="M1043.94 219.304h-2.74v-1.624h2.74v1.624zm1.47 3.359h-1.99v-8.453h1.99v8.453zm-4.86.315c1.01 0 1.88.109 2.62.326.73.217 1.3.532 1.69.945.39.408.59.898.59 1.469 0 .571-.2 1.061-.59 1.47-.39.409-.96.722-1.69.939-.74.221-1.61.332-2.62.332s-1.88-.111-2.62-.332c-.73-.217-1.29-.53-1.68-.939-.4-.409-.59-.899-.59-1.47s.19-1.061.59-1.469c.39-.413.96-.728 1.69-.945.73-.217 1.6-.326 2.61-.326zm0 1.514c-.64 0-1.17.046-1.6.138-.43.088-.76.225-.98.409a.862.862 0 0 0-.32.679c0 .269.11.494.32.674.22.181.55.317.98.409.43.089.96.133 1.6.133.63 0 1.16-.044 1.59-.133.44-.092.77-.228.99-.409.22-.18.34-.405.34-.674 0-.272-.12-.499-.34-.679-.22-.184-.55-.321-.99-.409-.43-.092-.96-.138-1.59-.138zm-2.17-7.917c0 .924-.15 1.79-.45 2.596a5.812 5.812 0 0 1-1.34 2.127c-.6.612-1.35 1.068-2.23 1.371l-1.03-1.581c.76-.25 1.4-.613 1.91-1.088.52-.475.9-1.006 1.15-1.591.24-.589.37-1.201.37-1.834v-.934h1.62v.934zm.41-.017c0 .586.12 1.149.35 1.691.24.541.61 1.031 1.1 1.469.49.435 1.1.772 1.82 1.011l-.98 1.569c-.86-.28-1.58-.709-2.17-1.287a5.655 5.655 0 0 1-1.31-2.011 6.805 6.805 0 0 1-.43-2.442v-.917h1.62v.917zm2.83.122h-7.71v-1.603h7.71v1.603zm10.53-.039a8.238 8.238 0 0 1-.45 2.674c-.3.818-.75 1.53-1.35 2.138-.6.608-1.34 1.061-2.22 1.359l-1.11-1.574c.78-.24 1.43-.595 1.95-1.067.52-.475.9-1.013 1.15-1.613a5.15 5.15 0 0 0 .37-1.917v-1.553h1.66v1.553zm.35.016c-.01.627.11 1.223.36 1.791.24.563.61 1.066 1.11 1.508.49.442 1.11.782 1.86 1.022l-1.05 1.569c-.86-.287-1.58-.72-2.16-1.298a5.634 5.634 0 0 1-1.3-2.045c-.29-.784-.43-1.633-.43-2.547v-1.569h1.61v1.569zm6.04 7.984h-2v-10.42h2v10.42zm1.91-4.63h-2.49v-1.674h2.49v1.674zm-1.4 8.182h-9.75v-1.607h9.75v1.607zm-7.71-.751h-2.04v-3.829h2.04v3.829zM1012.99 220.997l-5.95-4.039v8.076l5.95-4.037z" fill="#3352F6"/>
</svg>
