<svg width="74" height="74" viewBox="0 0 74 74" fill="none" xmlns="http://www.w3.org/2000/svg">
    <circle cx="37" cy="37" r="37" fill="#fff"/>
    <path d="M10.74 23.743h2.347l1.173 5.47 1.408-5.47h2.112l1.408 5.242 1.174-5.242h2.346l-2.346 7.978h-2.347l-1.174-5.243-1.408 5.015h-2.346l-2.347-7.75zM25.29 31.265l-1.408-1.368c-.235-.684-.47-1.368-.47-2.28 0-.911.235-1.595.47-2.051.47-.684.938-1.14 1.408-1.596.47-.456 1.173-.456 2.112-.456.704 0 1.408.228 1.877.456.47.228.939.684 1.408 1.368.235.684.47 1.368.47 2.28v.683H24.35v-1.367h4.694c0-.228 0-.684-.235-.912 0-.228-.235-.456-.47-.684-.234 0-.703-.228-.938-.228s-.704 0-.939.228l-.704.684c0 .228-.235.456-.235.912V28.3c0 .456 0 .684.235 1.14l.704.684H28.106c.235 0 .47-.228.47-.228.234-.228.234-.228.234-.456h2.112c0 .456-.235.912-.704 1.368 0 .228-.47.456-.939.684-.47.228-1.173.228-1.877.228s-1.408-.228-2.112-.456zM34.208 31.265c-.704-.456-1.174-.912-1.409-1.596-.469-.456-.469-1.14-.469-2.052 0-.911.235-1.595.47-2.051.234-.684.704-1.14 1.408-1.596.703-.456 1.408-.456 2.112-.456.704 0 1.408.228 1.877.456.47.228.939.684 1.173 1.14.235.456.47.912.47 1.596h-2.112c0-.228-.235-.456-.235-.684 0-.456-.235-.456-.47-.684-.234 0-.469-.228-.703-.228-.47 0-.704 0-.94.228-.234.228-.469.456-.703.912-.235.456-.235.684-.235 1.367 0 .456 0 .912.235 1.368.234.456.234.684.704.912.235 0 .47.228.939.228.234 0 .469 0 .704-.228.234 0 .469-.228.469-.456.235-.228.235-.456.235-.684h2.112c0 .684-.235 1.14-.47 1.596a2.79 2.79 0 0 1-1.173 1.14c-.47.228-1.173.456-1.877.456-.94-.229-1.643-.456-2.112-.684zM43.595 31.493h-2.347V21.007h2.112v4.103c.235-.228.235-.684.47-.912.234-.228.469-.456.938-.456.235-.227.704-.227 1.173-.227.47 0 1.174.227 1.408.455.47.228.705.684.94 1.14.234.456.234.912.234 1.596v5.015H46.41v-4.787c0-.228 0-.684-.235-.912.235-.228 0-.456-.235-.456-.234-.228-.469-.228-.704-.228-.234 0-.469 0-.938.228-.235.228-.47.228-.47.456-.234.228-.234.684-.234.912v4.559zM54.39 28.301h-.939c-.47 0-.704.228-.938.228-.235.228-.235.456-.235.684 0 .228 0 .456.235.456 0 .228.234.228.469.228h.704c.235 0 .704 0 .939-.228.234-.228.469-.228.704-.456.234-.228.234-.456.234-.684v-2.507c0-.228 0-.456-.234-.684 0-.228-.235-.228-.47-.456-.234 0-.469-.228-.704-.228h-.704c-.47.684-.47.684-.704.912-.234.228-.234.228-.234.456H50.4c0-.456.235-.912.47-1.368.235-.456.704-.684 1.173-.912.47-.228 1.174-.228 1.878-.228s1.173 0 1.642.228c.47.228.94.456 1.174.912.234.456.47.912.47 1.596v5.243h-1.878v-.912c-.235.228-.235.456-.47.684-.234.228-.469.228-.704.456-.234 0-.704.227-1.173.227-.47 0-.939 0-1.408-.227a2.789 2.789 0 0 1-1.174-1.14c-.234-.456-.234-.684-.234-1.368 0-.912.235-1.368.939-1.823.469-.456 1.408-.684 2.112-.684H55.564v1.367c-.47 0-.705 0-1.174.228zM63.308 25.338h-4.929v-1.596h4.929v1.596zM61.9 21.691v7.75c0 .228.234.228.234.228h1.408v1.596H62.37c-.47 0-.939 0-1.408-.228-.47-.228-.704-.456-.939-.684-.234-.228-.234-.684-.234-1.14v-7.522H61.9zM47.108 55h-20.68c-5.345 0-9.527-4.169-9.527-9.495s4.182-9.495 9.527-9.495h20.68c5.344 0 9.526 4.169 9.526 9.495C56.634 50.6 52.22 55 47.108 55z" fill="#3352F6"/>
    <path d="M22.942 39.485h4.415c.93 0 1.627.231 2.091.463.697.231 1.162.694 1.394 1.39.233.462.465 1.157.465 2.084 0 .694-.232 1.389-.465 2.084-.232.463-.697.926-1.394 1.39-.697 0-1.394.23-2.091.23h-2.788v-2.084h2.323c.465 0 .697 0 .93-.231.232-.232.464-.232.697-.695.232-.231.232-.463.232-.926 0-.232 0-.695-.232-.926l-.697-.695c-.233-.232-.697-.232-.93-.232h-1.394v8.8h-2.556V39.485zM30.842 50.6l3.718-10.884h3.486L41.763 50.6h-2.788l-2.556-8.337-2.556 8.337h-3.02zm8.365-4.4v2.084h-6.041V46.2h6.041zM44.087 39.485l2.323 4.631 2.324-4.631h3.02l-3.95 7.178v3.706H45.25v-3.706l-3.95-7.178h2.788z" fill="#fff"/>
</svg>
