<svg width="74" height="74" viewBox="0 0 74 74" fill="none" xmlns="http://www.w3.org/2000/svg">
    <circle cx="37" cy="37" r="37" fill="#fff"/>
    <path d="m55.778 38.416-18.04-7.147c-.416-.103-.833-.103-1.146 0l-18.039 7.147a1.482 1.482 0 0 0 0 2.758l18.039 7.148c.417.102.834.102 1.147 0l18.039-7.149c1.251-.408 1.251-2.246 0-2.757z" fill="#3352F6"/>
    <path fill-rule="evenodd" clip-rule="evenodd" d="M36.434 30.784c.427-.139.944-.128 1.426-.01l.034.008 18.076 7.163c.842.343 1.255 1.135 1.255 1.888 0 .75-.414 1.53-1.273 1.82L37.912 48.8l-.015.004c-.427.14-.944.129-1.426.01l-.034-.007-18.076-7.163c-1.674-.683-1.674-3.017 0-3.7l.005-.002 18.053-7.154.015-.005zm.33.964-18.019 7.14h-.002a.973.973 0 0 0 0 1.813l.003.001 18 7.133c.331.076.628.066.822.007l18.037-7.148.015-.005c.38-.124.587-.462.587-.856a1 1 0 0 0-.62-.944l-.002-.001-18-7.133c-.331-.076-.629-.066-.822-.007z" fill="#3352F6"/>
    <path d="M16.676 42.195v12.05c0 .51.313 1.02.834 1.225l16.475 6.433c.834.306 1.773-.306 1.773-1.225V48.73c0-.51-.313-1.02-.835-1.225L18.45 40.97c-.835-.307-1.773.306-1.773 1.225zM55.777 40.97l-16.58 6.535c-.52.204-.833.612-.833 1.225v12.05c0 .919.938 1.531 1.772 1.225l16.475-6.535c.522-.204.834-.613.834-1.226v-12.05c.105-.918-.834-1.53-1.668-1.224z" fill="#3352F6"/>
    <path d="M41.7 52.1c-.416 0-.834-.204-1.146-.51l-2.398-2.655c-.313-.306-.418-.817-.313-1.328.104-.51.417-.817.938-1.02l16.788-6.638c.208-.102.417-.102.521-.102.417 0 .834.204 1.147.51l2.398 2.655c.313.306.417.817.313 1.328-.104.51-.417.817-.938 1.02l-16.788 6.638c-.209.102-.417.102-.521.102z" fill="#3352F6"/>
    <path d="M55.986 40.97c.104 0 .209 0 .313.102l2.398 2.655c.209.204.104.613-.209.715l-16.787 6.637h-.209c-.104 0-.208 0-.312-.102l-2.399-2.655c-.208-.204-.104-.613.209-.715l16.788-6.637h.208zm0-2.042c-.313 0-.626.102-.938.204L38.26 45.769c-.73.306-1.355.92-1.564 1.736-.209.817 0 1.634.626 2.246l2.398 2.656c.521.51 1.147.816 1.877.816.313 0 .625-.102.938-.204l16.788-6.637c.73-.306 1.355-.92 1.564-1.736.208-.817 0-1.634-.626-2.247l-2.398-2.655c-.521-.51-1.147-.816-1.877-.816z" fill="#fff"/>
    <path d="M32.421 52.1c-.209 0-.417 0-.521-.102l-16.788-6.637c-.417-.204-.834-.613-.938-1.021-.105-.51 0-.92.312-1.328l2.399-2.655c.313-.306.73-.51 1.147-.51.208 0 .417 0 .521.102l16.787 6.637c.418.204.835.613.939 1.021.104.51 0 .92-.313 1.328l-2.398 2.655c-.313.408-.73.51-1.147.51z" fill="#3352F6"/>
    <path d="M18.136 40.97h.208l16.683 6.637c.313.102.417.51.209.715l-2.398 2.655c-.105.102-.209.102-.313.102h-.209L15.53 44.442c-.313-.102-.417-.51-.209-.715l2.398-2.655c.105 0 .313-.102.418-.102zm0-2.042c-.73 0-1.356.306-1.877.816L13.86 42.4c-.521.613-.834 1.43-.625 2.247.208.817.73 1.43 1.564 1.736l16.683 6.535c.313.102.626.204.938.204.73 0 1.356-.306 1.877-.817l2.399-2.655c.521-.612.834-1.43.625-2.246-.208-.817-.73-1.43-1.564-1.736l-16.683-6.535c-.313-.102-.626-.204-.939-.204z" fill="#fff"/>
    <path d="M55.986 39.54c-.209 0-.417 0-.626-.102l-17.83-7.046c-.626-.205-.939-.817-.939-1.43v-.306l2.503-3.268c.209-.613.73-1.021 1.46-1.021.208 0 .417 0 .625.102l17.83 7.046c.626.204.939.817.939 1.43v.306l-2.502 3.165c-.209.613-.835 1.124-1.46 1.124z" fill="#3352F6"/>
    <path d="M40.554 27.388h.208l17.83 7.046c.21.102.313.306.313.409l-2.398 3.063c0 .306-.208.408-.521.408h-.209l-17.83-6.943c-.209-.102-.313-.307-.313-.409l2.398-3.063c.105-.307.313-.51.522-.51zm0-2.042a2.637 2.637 0 0 0-2.398 1.532l-2.19 2.757-.417.51v.613c0 1.021.626 2.042 1.564 2.45l17.83 7.047c.313.102.626.204.939.204a2.637 2.637 0 0 0 2.398-1.532l2.19-2.757.416-.51v-.613c0-1.021-.625-2.042-1.564-2.451L41.596 25.55c-.312-.102-.625-.204-1.042-.204z" fill="#fff"/>
    <path d="M18.449 39.54c-.626 0-1.252-.409-1.46-1.021l-2.503-3.268v-.306c0-.613.313-1.226.939-1.43l17.83-7.046c.104-.102.313-.102.521-.102.626 0 1.252.408 1.46 1.021l2.503 3.166v.306c0 .613-.313 1.225-.939 1.43l-17.83 7.148c-.104 0-.313.102-.521.102z" fill="#3352F6"/>
    <path d="M33.776 27.388c.209 0 .521.204.521.409l2.399 3.063c0 .204-.104.409-.313.409l-17.726 7.148h-.209c-.208 0-.521-.205-.521-.409l-2.398-3.063c0-.205.104-.409.313-.409l17.726-7.148h.208zm0-2.042c-.313 0-.73.102-1.043.204l-17.725 7.046c-1.043.409-1.669 1.43-1.565 2.45v.613l.418.511 2.19 2.757a2.637 2.637 0 0 0 2.397 1.532c.313 0 .73-.102 1.043-.204l17.726-7.046c1.043-.409 1.668-1.43 1.564-2.451v-.613l-.417-.51-2.19-2.757a2.637 2.637 0 0 0-2.398-1.532z" fill="#fff"/>
    <path d="M37.49 7.828c.353-.88 1.531-.63 1.531.378 0 .755.825 1.132 1.414.629.707-.63 1.65.126 1.296 1.007-.236.629.353 1.384.943 1.132.824-.251 1.414.881.824 1.51-.47.504-.235 1.385.472 1.51.825.127 1.06 1.385.118 1.637-.707.251-.825 1.258-.118 1.636.825.503.353 1.762-.472 1.636-.706-.126-1.178.755-.706 1.384.47.755-.354 1.762-1.061 1.258-.59-.377-1.296.252-1.178.881.235.881-.943 1.51-1.414.63-.354-.63-1.296-.378-1.414.377-.118.881-1.414.881-1.532 0-.118-.755-1.06-1.007-1.414-.377-.471.755-1.65.251-1.414-.63.118-.755-.589-1.258-1.178-.88-.707.503-1.532-.504-1.06-1.26.117-.628-.354-1.51-1.06-1.383-.826.126-1.179-1.133-.472-1.636.59-.378.471-1.385-.118-1.636-.825-.252-.707-1.636.118-1.636.707-.126 1.06-1.007.471-1.51-.589-.63 0-1.762.825-1.51.707.251 1.296-.504.943-1.133-.354-.881.707-1.636 1.296-1.007.471.503 1.414.126 1.414-.63 0-.88 1.178-1.258 1.531-.377.236.755 1.179.755 1.414 0z" fill="#3352F6"/>
    <path fill-rule="evenodd" clip-rule="evenodd" d="M36.781 7.017a1.73 1.73 0 0 0-.663-.548 1.753 1.753 0 0 0-1.214-.093 1.89 1.89 0 0 0-1.35 1.49c-.684-.46-1.51-.302-2.036.09a1.914 1.914 0 0 0-.724 1.968c-.806-.068-1.445.437-1.743.995-.314.586-.372 1.429.138 2.103-.86.2-1.24 1.026-1.287 1.617-.049.625.212 1.48 1.015 1.864-.704.561-.826 1.445-.64 2.097.187.655.81 1.408 1.81 1.325a.444.444 0 0 1 .03.09l.002.008c-.314.739-.1 1.52.313 2.017.239.286.585.534 1.017.624.288.06.584.043.865-.05-.05 1.537 1.858 2.418 2.982 1.4.562 1.459 2.745 1.464 3.32.017.193.183.425.321.687.399.449.132.894.062 1.253-.112a1.86 1.86 0 0 0 1.047-1.706c.28.095.577.113.867.052.431-.09.777-.338 1.016-.624.432-.52.645-1.347.269-2.113.817-.061 1.371-.694 1.566-1.29.222-.683.084-1.578-.661-2.132a1.78 1.78 0 0 0 .785-.677c.238-.378.304-.804.257-1.186-.081-.669-.546-1.374-1.34-1.602.525-.677.469-1.53.152-2.121-.298-.558-.937-1.062-1.743-.995.182-.764-.1-1.51-.66-1.952a1.79 1.79 0 0 0-2.096-.093c-.119-.789-.666-1.392-1.397-1.562a1.76 1.76 0 0 0-1.837.7zm3.258 1.189zm.396.63c-.59.503-1.414.125-1.414-.63 0-1.007-1.178-1.259-1.532-.378-.235.755-1.178.755-1.414 0-.353-.88-1.531-.503-1.531.378 0 .755-.943 1.133-1.414.63-.59-.63-1.65.125-1.296 1.006.353.63-.236 1.384-.943 1.133-.825-.252-1.414.88-.825 1.51.59.503.236 1.384-.471 1.51-.825 0-.943 1.384-.118 1.636.59.252.707 1.258.118 1.636-.707.503-.354 1.762.471 1.636.707-.126 1.179.755 1.06 1.384-.47.755.354 1.762 1.061 1.259.59-.378 1.296.126 1.178.88-.235.882.943 1.385 1.414.63.354-.63 1.296-.378 1.414.377.118.881 1.414.881 1.532 0 .118-.755 1.06-1.006 1.414-.377.471.88 1.65.252 1.414-.63-.118-.629.589-1.258 1.178-.88.707.503 1.532-.504 1.06-1.259-.47-.629 0-1.51.708-1.384.824.126 1.295-1.133.47-1.636-.706-.378-.588-1.384.119-1.636.942-.252.706-1.51-.118-1.636-.707-.126-.943-1.007-.471-1.51.589-.63 0-1.762-.825-1.51-.59.251-1.179-.504-.943-1.133.353-.881-.59-1.636-1.296-1.007zM30.045 19.86h.001z" fill="#3352F6"/>
    <path fill-rule="evenodd" clip-rule="evenodd" d="M40.153 13.885a.764.764 0 0 1-.013 1.08l-3.653 3.564a.764.764 0 0 1-1.066 0l-1.949-1.901a.764.764 0 0 1 1.067-1.093l1.415 1.38 3.12-3.044a.764.764 0 0 1 1.08.014z" fill="#fff"/>
</svg>
