<svg width="74" height="74" viewBox="0 0 74 74" fill="none" xmlns="http://www.w3.org/2000/svg">
    <circle cx="37" cy="37" r="37" fill="#fff"/>
    <path d="M55.96 50.566H16.82c-.965 0-1.77-.803-1.77-1.768v-29.47c0-.965.805-1.769 1.77-1.769h39.14c.965 0 1.769.804 1.769 1.769v29.47a1.75 1.75 0 0 1-1.77 1.768z" fill="#3352F6"/>
    <path d="M51.793 43.965h-30.83c-.719 0-1.342-.553-1.342-1.29V22.912c0-.691.575-1.29 1.343-1.29h30.829c.72 0 1.343.552 1.343 1.29v19.763c0 .69-.624 1.29-1.343 1.29z" fill="#fff"/>
    <path d="M57.663 58.224a1.386 1.386 0 0 1-1.295-.58L45.231 41.137c-.452-.602-.282-1.464.385-1.923l4.369-2.987c.18-.148.43-.24.623-.26.514-.053.99.158 1.295.58l11.2 16.501c.227.301.267.687.236 1.015-.095.335-.255.676-.556.902l-4.497 3c-.18.148-.366.233-.623.26z" fill="#3352F6"/>
    <path d="M50.714 36.996c.129-.014.264.037.406.152l11.137 16.508c.149.18.047.45-.133.598l-4.368 2.986c-.058.071-.122.078-.187.085-.128.013-.263-.038-.405-.153L46.02 40.6c-.148-.179-.047-.45.133-.598l4.369-2.986.192-.02zm-.2-1.928c-.386.04-.765.145-1.066.37l-4.368 2.987c-1.098.699-1.337 2.152-.638 3.249l11.201 16.5c.466.731 1.349 1.094 2.184 1.007.386-.04.765-.144 1.067-.37l4.368-2.987c.545-.381.884-.87 1.017-1.47.133-.597.002-1.233-.38-1.778l-11.2-16.5c-.53-.725-1.35-1.095-2.185-1.008z" fill="#fff"/>
    <path d="M45.626 39.927c-.708.074-1.41-.438-1.484-1.145l-.76-5.44a1.03 1.03 0 0 1 .42-.953l.61-.389c.122-.077.308-.161.437-.175.193-.02.392.024.599.133l4.769 2.752c.413.216.652.646.705 1.16.047.45-.228.933-.593 1.166l-4.074 2.696c-.18.148-.437.175-.63.195z" fill="#3352F6"/>
    <path d="m44.885 32.796 4.77 2.751c.276.166.245.494.008.714l-3.945 2.682c-.057.071-.122.078-.186.085a.417.417 0 0 1-.426-.346l-.824-5.434.603-.452zm-.2-1.928c-.322.034-.637.131-.874.35l-.61.389c-.609.388-.921 1.135-.841 1.906l.76 5.44c.198 1.279 1.327 2.136 2.548 2.009.386-.04.765-.145 1.066-.37l3.945-2.683c.667-.46 1.044-1.213 1.022-2.055-.023-.842-.482-1.508-1.178-1.956l-4.77-2.751c-.284-.23-.683-.319-1.068-.279z" fill="#fff"/>
    <path d="M40.733 55.389H32.1l.912-6.162h6.755l.966 6.162z" fill="#3352F6"/>
    <path d="M47.596 58.818c.268 0 .482-.214.429-.482-.269-1.93-1.93-3.43-3.914-3.43H28.669c-2.037 0-3.646 1.5-3.914 3.43-.053.268.161.482.43.482h22.41z" fill="#3352F6"/>
</svg>
